<svg version="1.1" id="Layer_1" xmlns="http://www.w3.org/2000/svg" xmlns:xlink="http://www.w3.org/1999/xlink" x="0px" y="0px"
	 width="100%" viewBox="0 0 468 415" enable-background="new 0 0 468 415" xml:space="preserve">
<path fill="#FEFFFF" opacity="1.000000" stroke="none" 
	d="
M317.000000,416.000000 
	C212.696045,416.000000 108.892075,415.982391 5.088215,416.081787 
	C1.857573,416.084930 0.891396,415.695465 0.894706,412.090302 
	C1.019364,276.295532 1.014189,140.500580 0.914137,4.705763 
	C0.911757,1.475854 1.775060,0.928597 4.792214,0.930158 
	C158.248749,1.009576 311.705322,1.008053 465.161865,0.939097 
	C468.069275,0.937791 469.096191,1.316110 469.093506,4.659836 
	C468.984039,140.621262 468.985626,276.582794 469.090546,412.544250 
	C469.092957,415.647705 468.318085,416.078766 465.457520,416.072906 
	C416.138519,415.971558 366.819214,416.000000 317.000000,416.000000 
z"/>
<path fill="#43B4E4" opacity="1.000000" stroke="none" 
	d="
M123.693405,28.656101 
	C149.689987,22.672403 174.931122,24.073969 199.942291,31.931334 
	C203.810989,33.146698 205.028122,34.935421 204.955261,38.979713 
	C204.688110,53.805515 204.859802,68.639046 204.843872,83.469650 
	C204.837997,88.950050 204.809738,88.950020 200.210342,86.417320 
	C144.176697,55.561741 75.483772,89.082504 65.198219,152.300522 
	C57.450741,199.918808 90.510109,246.981659 137.995132,255.959641 
	C164.081467,260.891754 187.828720,255.409775 209.490311,240.186859 
	C212.650024,237.966339 213.911133,235.519409 213.893478,231.545654 
	C213.728363,194.386536 213.862823,157.226074 213.701736,120.066910 
	C213.683731,115.914818 214.773300,114.714088 218.953918,114.799767 
	C232.112656,115.069443 245.283661,115.062988 258.442749,114.801811 
	C262.520721,114.720863 263.392822,116.097488 263.369659,119.901131 
	C263.217590,144.895630 263.365753,169.891953 263.218903,194.886505 
	C263.194061,199.114212 263.560760,200.322052 268.253723,198.503479 
	C304.150635,184.592865 340.056946,184.588684 375.682983,199.558960 
	C379.993164,201.370102 380.879059,200.742523 380.847229,196.138626 
	C380.671204,170.644516 380.831055,145.148163 380.686035,119.653641 
	C380.665466,116.039444 381.461639,114.737518 385.343689,114.806625 
	C398.836945,115.046814 412.338623,115.010582 425.833588,114.823830 
	C429.340851,114.775291 430.321960,115.833992 430.318085,119.321167 
	C430.228516,200.139618 430.226440,280.958191 430.322693,361.776611 
	C430.326996,365.380005 429.150940,366.234680 425.749268,366.191345 
	C412.253937,366.019409 398.752045,365.959686 385.259491,366.219208 
	C381.236481,366.296600 380.683472,364.755127 380.695923,361.275452 
	C380.810059,329.448364 380.700928,297.620392 380.846039,265.793518 
	C380.863037,262.063995 379.714355,259.623962 376.812500,257.358490 
	C342.229218,230.359100 293.321289,231.903137 260.403198,260.819763 
	C249.272659,270.597321 237.635361,279.815887 225.302383,288.085083 
	C206.643875,300.595551 185.673416,306.420227 163.593231,307.055817 
	C102.375511,308.818054 56.895695,282.092743 28.880663,227.944382 
	C1.708476,175.425095 13.385454,109.121216 55.094299,67.264252 
	C74.261543,48.028938 96.860229,35.047882 123.693405,28.656101 
z"/>
<path fill="#43B5E4" opacity="1.000000" stroke="none" 
	d="
M117.383453,218.989151 
	C116.502701,216.097031 118.646912,214.143112 119.862663,211.897919 
	C123.033859,206.041489 126.317543,200.248428 128.631821,193.977951 
	C129.029922,192.899277 129.600998,191.615265 128.365768,190.799454 
	C127.194511,190.025909 126.042946,188.938629 124.364868,189.424149 
	C116.906136,191.582230 112.985718,189.428894 110.450760,181.794113 
	C108.830872,182.454926 107.619926,184.206375 104.934639,183.583572 
	C109.676544,174.996460 106.934196,166.158310 106.285004,157.358475 
	C105.794922,150.715454 105.160545,144.001755 106.424568,137.420105 
	C109.235870,122.782082 118.859390,114.228554 132.534698,110.014351 
	C149.235123,104.867943 164.466858,109.237236 178.499847,118.573929 
	C183.954117,122.202881 186.573074,127.750565 186.096176,134.487732 
	C185.932114,136.805313 185.472794,138.577805 183.112137,140.178268 
	C177.548416,143.950333 177.409164,153.010010 182.603592,158.695007 
	C184.885895,161.192871 185.358414,162.511948 183.938950,166.415573 
	C182.197830,171.203751 179.260971,176.351212 180.340546,182.142868 
	C181.027283,185.827103 178.812119,187.777237 175.255478,188.004410 
	C173.276718,188.130798 171.252045,187.953903 169.279358,187.684555 
	C162.597855,186.772278 158.569092,189.972641 157.925461,196.764084 
	C157.381958,202.499146 159.392700,207.593063 161.942032,212.504471 
	C163.395340,215.304367 165.260971,217.887268 166.802399,220.645325 
	C167.977798,222.748489 171.347412,225.184464 169.771713,226.900162 
	C167.772049,229.077484 164.644119,226.396866 162.222519,225.275436 
	C158.149414,223.389175 154.237564,221.156815 150.240173,219.104553 
	C139.435059,213.557236 128.591797,213.171463 117.383453,218.989151 
z"/>
<path fill="#42B4E4" opacity="1.000000" stroke="none" 
	d="
M236.719604,291.739685 
	C245.423111,284.771942 253.848511,278.029480 262.275177,271.285950 
	C263.936310,272.236206 263.247864,273.726562 263.249695,274.900879 
	C263.294617,303.697784 263.231506,332.494965 263.353882,361.291412 
	C263.368774,364.798523 262.753571,366.290894 258.767639,366.216156 
	C245.289398,365.963501 231.802322,366.023743 218.321350,366.187958 
	C214.975143,366.228699 213.678391,365.472412 213.717239,361.821136 
	C213.899551,344.678040 213.849075,327.531677 213.744400,310.387299 
	C213.728256,307.740265 214.561478,306.321442 216.889542,304.895447 
	C223.548630,300.816711 229.943024,296.305847 236.719604,291.739685 
z"/>
<path fill="#43B5E4" opacity="1.000000" stroke="none" 
	d="
M116.999435,218.996201 
	C116.845306,219.101685 116.496468,219.982147 116.874039,218.977600 
	C117.049065,219.059723 117.016014,219.017349 116.999435,218.996201 
z"/>
</svg>